<?xml version="1.0" encoding="iso-8859-1"?>
<!-- Generator: Adobe Illustrator 21.0.0, SVG Export Plug-In . SVG Version: 6.00 Build 0)  -->
<svg version="1.1" id="Layer_1" xmlns="http://www.w3.org/2000/svg" xmlns:xlink="http://www.w3.org/1999/xlink" x="0px" y="0px"
	 viewBox="0 0 100.353 100.353" style="enable-background:new 0 0 100.353 100.353;" xml:space="preserve">
<path d="M95.162,24.794c-0.502-1.372-1.478-2.482-2.748-3.126c-1.304-0.662-2.759-0.756-4.096-0.267l-16.474,6.034
	c-0.573,0.21-0.938,0.733-0.978,1.305l-20.187,7.398c-1.529-3.789-2.796-6.813-3.396-8.234l8.834-10.534
	c0.375-0.447,0.457-1.07,0.21-1.598c-0.247-0.528-0.776-0.866-1.359-0.866H9.974c-0.583,0-1.113,0.338-1.359,0.866
	C8.368,16.3,8.45,16.923,8.825,17.37l8.834,10.534C15.603,32.771,5.761,56.355,4.158,65.533c-1.093,6.254,0.41,12.376,4.124,16.796
	c3.617,4.304,8.949,6.675,15.013,6.675h17.669c6.191,0,11.889-2.555,15.633-7.009c3.772-4.488,5.261-10.334,4.191-16.462
	c-0.807-4.609-3.689-12.848-6.62-20.527l19.924-7.52c0.28,0.279,0.652,0.452,1.049,0.452c0.171,0,0.346-0.03,0.516-0.092
	l16.479-6.034C94.857,30.812,96.214,27.664,95.162,24.794z M13.19,17.906h38.563l-6.909,8.238H20.098L13.19,17.906z M54.3,80.065
	c-3.219,3.83-7.956,5.939-13.336,5.939H23.295c-5.163,0-9.679-1.991-12.716-5.605c-2.164-2.575-3.402-5.757-3.692-9.237h51.124
	C57.674,74.47,56.428,77.532,54.3,80.065z M58.078,68.162H6.855c0.051-0.697,0.134-1.401,0.258-2.112
	c1.521-8.711,11.228-32.031,13.28-36.906H44.55c0.943,2.24,3.499,8.368,6.139,15.194c0.014,0.116,0.038,0.232,0.081,0.347
	c0.041,0.108,0.104,0.199,0.165,0.292c3.026,7.86,6.095,16.49,6.897,21.073C57.956,66.76,58.033,67.463,58.078,68.162z
	 M51.796,38.924l19.978-7.322l1.143,3.121l-19.828,7.484C52.65,41.082,52.218,39.986,51.796,38.924z M91.103,28.995l-15.069,5.518
	l-1.749-4.776l15.066-5.518c0.546-0.201,1.152-0.156,1.705,0.125c0.59,0.3,1.048,0.826,1.289,1.483
	C92.828,27.145,92.27,28.566,91.103,28.995z"/>
</svg>
